PathFileType	4	(X/Y/Z)	C:\Users\WrightLab\Desktop\Jo\P5V119.trc
DataRate	CameraRate	NumFrames	NumMarkers	Units	OrigDataRate	OrigDataStartFrame	OrigNumFrames
100.00	100.00	       14	19	mm	100.00	214	       569
Frame#	Time	Headset_Front			Headset_Back			Headset_Left			Headset_Right			Left_Shoulder			Right_Shoulder			Sternum			C7			Left Elbow			Right Elbow			Left Wrist			Right Wrist			Left ASIS			Right ASIS			S2			Left Knee			Right Knee			Left Ankle			Right Ankle			
		X1	Y1	Z1	X2	Y2	Z2	X3	Y3	Z3	X4	Y4	Z4	X5	Y5	Z5	X6	Y6	Z6	X7	Y7	Z7	X8	Y8	Z8	X9	Y9	Z9	X10	Y10	Z10	X11	Y11	Z11	X12	Y12	Z12	X13	Y13	Z13	X14	Y14	Z14	X15	Y15	Z15	X16	Y16	Z16	X17	Y17	Z17	X18	Y18	Z18	X19	Y19	Z19	

214	2.130	-391.52240	1590.41956	-521.68945	-504.18137	1715.52307	-581.60028							-336.23621	1432.30054	-628.00659	-747.51776	1427.48401	-588.22961	-563.53931	1267.93201	-535.09338	-560.21741	1489.99487	-719.13171	-301.62555	1156.53955	-735.21539	-858.86694	1185.06653	-694.16809	-339.42776	1061.87048	-542.17780	-799.66791	1017.90558	-528.19281	-451.48093	878.16589	-557.06934	-724.54388	911.27362	-589.31732	-553.81995	946.84436	-827.86194	-510.10101	499.65131	-473.15335	-736.90601	458.70184	-757.89771	-599.85193	82.80206	-416.51111				
215	2.140	-391.89352	1589.58276	-513.21466	-504.65262	1714.80579	-573.51270							-337.06137	1431.56384	-620.09387	-747.48914	1427.52698	-578.93713	-565.19116	1266.75537	-526.32343	-561.26251	1489.08728	-710.42291	-303.00583	1155.85364	-727.60748	-860.49261	1185.64441	-684.60339	-341.43555	1060.80701	-533.95563	-799.91516	1018.12817	-518.90125	-453.80090	878.20721	-546.79755	-726.35364	910.72717	-579.08838	-555.93616	945.31140	-817.23199	-512.24017	496.89993	-467.00748	-738.36469	458.09903	-749.52820	-605.06085	81.84277	-409.11920				
216	2.150	-392.19202	1588.77612	-505.28262	-504.96576	1714.15100	-565.24847							-338.45789	1430.29333	-610.80090	-748.62518	1427.62915	-570.31201	-565.88678	1266.96716	-516.08435	-562.19147	1487.66284	-701.71857	-305.51547	1154.45679	-717.36761	-861.71912	1185.40405	-674.18744	-341.74860	1061.30322	-524.90619	-800.70923	1018.15009	-509.73541	-456.26770	877.30774	-536.75317	-728.71454	911.58752	-569.80017	-558.10052	944.30560	-804.85010	-515.10339	494.36716	-460.93381	-738.87097	457.41141	-740.85144	-608.84460	78.78600	-405.76904				
217	2.160	-392.47760	1588.78101	-497.37711	-505.25000	1713.55579	-558.16144							-339.33340	1429.34180	-602.08521	-747.77570	1427.27551	-560.65515	-566.90015	1267.21509	-505.33698	-562.64020	1486.28125	-692.92072	-306.31778	1154.64648	-710.84698	-862.81805	1185.46960	-663.47455	-342.51678	1061.26123	-516.71106	-799.84491	1018.00208	-498.51746	-457.06686	876.67706	-526.03009	-731.21680	911.68848	-558.94629	-559.91949	942.61078	-794.03485	-517.84399	491.88065	-453.51520	-739.22284	456.09103	-731.77606	-612.62500	77.10503	-403.15140				
218	2.170	-392.36749	1587.56445	-490.16953	-505.36761	1712.76563	-550.19550							-340.30405	1428.84595	-593.57123	-749.02240	1428.38440	-552.45184	-568.77667	1267.22546	-494.80817	-562.82391	1485.14807	-684.42377	-308.63257	1153.13745	-701.10333	-863.76819	1185.48401	-652.75604	-342.91379	1061.68823	-507.52087	-800.15662	1017.94159	-488.84979	-458.89349	876.54431	-514.44556	-732.53766	911.66638	-547.94611	-561.75189	941.48035	-782.86102	-520.51135	489.82846	-446.90311	-739.95483	455.73792	-722.76843	-613.73059	76.25612	-403.07816				
219	2.180	-392.35248	1587.57996	-481.14240	-505.35553	1712.35962	-542.55463							-340.51126	1427.55505	-584.74072	-749.28387	1429.84216	-544.13977	-569.58392	1266.64331	-486.35568	-562.61664	1483.96680	-676.06940	-310.61606	1153.23047	-694.05280	-865.18359	1186.79980	-642.19751	-342.41977	1061.58521	-498.21460	-799.96051	1019.00513	-479.60056	-460.79355	875.98920	-502.98495	-736.63562	912.05560	-536.98944	-563.27197	939.78979	-772.21509	-523.23517	487.51767	-438.07889	-740.22772	455.19846	-713.84778	-615.57568	74.82043	-400.28644				
220	2.190	-392.26505	1587.64417	-473.12906							-594.32892	1579.69189	-359.08887	-340.58368	1426.47644	-575.93024	-749.26685	1430.03564	-535.70587	-571.34326	1266.42419	-476.22015	-562.22382	1482.54272	-667.22919	-311.77301	1152.27368	-686.04565	-865.80023	1187.36475	-631.42084	-344.16971	1061.57800	-489.23773	-798.34772	1019.55774	-468.50162	-463.15894	875.69525	-489.42679	-738.75525	912.40302	-523.80017	-564.99390	938.54736	-760.40088	-524.97699	486.49719	-428.97394	-740.97021	454.10132	-703.86383	-616.31458	75.11395	-395.03970				
221	2.200	-391.85345	1587.70459	-464.19443							-594.01233	1579.65698	-350.41629	-340.76089	1425.43555	-566.48346	-748.75848	1431.38562	-526.74396	-572.30176	1267.23352	-466.18213	-561.63495	1481.70398	-658.87823	-311.75781	1150.96997	-675.78522	-866.62836	1188.29736	-620.86127	-343.38574	1062.16455	-480.13309	-798.58893	1020.83691	-458.35321	-464.61844	876.08307	-477.85114	-740.93335	912.55988	-511.62979	-566.38086	935.62720	-747.60010	-528.12677	484.37201	-420.58102	-740.90149	454.02338	-693.87323	-617.32379	75.67379	-392.76477				
222	2.210	-391.40533	1588.13452	-455.47855							-592.83575	1580.72375	-341.07809	-340.35928	1424.60303	-558.02667	-747.13043	1432.41309	-518.51239	-572.08459	1268.85291	-455.48425	-560.83203	1481.07263	-650.68616	-312.97266	1149.96826	-667.99622	-867.44763	1189.56226	-610.25085	-341.29120	1062.53052	-471.59790	-798.28992	1022.44208	-447.59012	-467.35135	876.57355	-465.13586	-743.03247	913.51141	-498.73502	-567.99530	934.91205	-737.16614	-530.40497	483.10889	-409.48856	-742.08075	453.61176	-683.64368	-617.77185	75.84701	-390.90988				
223	2.220	-390.84555	1589.00586	-446.12274							-592.63818	1582.11340	-332.23782	-340.29916	1423.78198	-548.59546	-749.43835	1435.67810	-510.75900	-573.31915	1269.51709	-445.51117	-559.63885	1481.27283	-641.51495	-313.31757	1148.83557	-657.92798	-867.94592	1190.73486	-599.74646	-340.25934	1062.66589	-462.08313	-798.38171	1023.82068	-437.80164	-469.88217	878.22913	-452.57114	-745.71320	915.24750	-485.71011	-569.20715	933.75146	-725.84186	-533.72424	482.34848	-399.41312	-742.29535	452.93332	-672.98151	-617.38135	76.02110	-390.43845				
224	2.230	-390.22675	1590.35718	-436.45267							-591.95544	1583.15027	-323.62646	-339.74338	1423.61047	-539.81952	-747.43146	1436.96289	-501.34860	-573.09320	1271.94800	-434.66650	-558.91650	1481.14587	-632.90778	-314.79968	1149.75403	-651.48334	-868.54279	1193.03455	-589.47510	-338.85907	1063.14026	-452.21283	-797.79010	1026.10938	-427.56311	-472.68494	879.73932	-440.77142	-747.39911	917.41064	-471.77597	-570.96301	932.83319	-715.67358	-535.38074	483.39905	-388.59534	-742.09491	453.63364	-660.99390	-617.29688	76.12180	-389.31894	-663.14368	132.28123	-943.01624	
225	2.240	-389.52554	1591.24731	-427.57059							-591.07349	1584.39673	-314.69092	-340.23956	1423.33618	-530.76923	-749.51953	1440.43994	-493.38382	-573.93964	1273.62988	-424.57645	-557.93530	1481.95483	-623.85724	-314.99155	1149.42871	-639.81891	-866.61469	1194.07275	-578.49677	-337.34930	1063.93591	-442.57184	-796.95197	1028.42444	-416.23343	-475.60544	881.15686	-430.17822	-748.82373	920.76837	-459.08145	-572.30054	933.08008	-704.40143	-537.53473	486.56131	-377.30939	-744.24567	455.71558	-649.67401	-617.30255	76.75848	-388.00671	-665.33063	138.29225	-935.23395	
226	2.250	-388.76788	1591.85583	-418.72601							-591.26770	1586.12427	-305.72543	-340.42773	1423.35938	-521.19806	-746.89685	1442.44910	-483.69247	-574.30035	1276.53870	-413.91382	-557.27368	1482.24915	-614.69922	-314.78650	1150.71814	-633.65405	-867.86188	1197.20044	-568.54169	-335.95004	1065.21960	-433.29230	-796.15118	1030.88550	-405.80978	-477.50992	882.82690	-419.14172	-749.45691	923.68274	-444.78397	-573.39923	933.34204	-694.67810	-539.95874	488.94958	-366.11258	-743.58929	457.18369	-636.15845	-618.34363	75.96529	-387.78476	-668.90588	143.69183	-925.31866	
227	2.260	-388.11435	1593.05835	-410.29834							-590.28998	1587.64453	-297.62704	-339.51242	1424.79211	-513.36688	-748.78101	1445.84607	-474.07690	-574.61670	1278.86902	-403.82733	-556.84253	1482.98584	-605.80511	-315.50870	1151.31909	-622.91107	-867.75220	1199.46326	-558.21515	-333.22546	1066.10461	-424.20099	-794.53894	1033.66235	-395.63950	-478.45319	884.70575	-407.57642	-749.00067	927.03259	-431.75497	-574.82861	933.79230	-683.25171	-541.63110	490.74207	-354.69571	-744.89038	460.14612	-623.40912	-619.21271	75.85837	-387.07501	-676.50610	148.53510	-910.44537	
